<svg xmlns="http://www.w3.org/2000/svg" xmlns:xlink="http://www.w3.org/1999/xlink" id="Layer" x="0" y="0" version="1.1" viewBox="0 0 335.99 235.19" xml:space="preserve" style="enable-background:new 0 0 335.99 235.19"><style type="text/css">.st0{opacity:.3;fill:#a3d9ef}.st1{fill-rule:evenodd;clip-rule:evenodd;fill:url(#SVGID_1_)}.st2{fill:#4e5b5f}.st3{fill:url(#SVGID_2_)}.st4{fill:url(#SVGID_3_)}.st5{fill:url(#SVGID_4_)}.st6{fill:#ccc}.st7{fill-rule:evenodd;clip-rule:evenodd;fill:#fece47}.st8{fill:url(#SVGID_5_)}.st9{fill:url(#SVGID_6_)}.st10{fill:#0a1f2d}.st11{fill:url(#SVGID_7_)}.st12{fill:#e84042}.st13{fill:#889da4}.st14{fill:#f7a63c}.st15{fill:#fece47}.st16{fill:#fff}.st17{fill:#c9cccc}.st18{fill:none}.st19{opacity:.3}.st20{fill:#a3d9ef}.st21{fill:url(#SVGID_8_)}.st22{fill:#113a54}.st23,.st24{fill-rule:evenodd;clip-rule:evenodd;fill:#e84042}.st24{fill:#f7a63c}.st25{opacity:.4;fill:#a3d9ef}</style><switch><g><path d="M287.19,56.29c-1.24-0.86-2.51-1.71-3.81-2.54c-4.03-2.56-8.36-4.98-13-7.22c-1.41-0.68-2.85-1.35-4.31-2 c-5.41-2.41-11.19-4.61-17.35-6.57c-0.66-0.21-1.33-0.41-2-0.62c-21.77-6.66-48.08-10.44-78.73-10.44 c-103.14,0-154.56,40.7-154.56,90.9c0,50.2,51.42,90.9,154.56,90.9c109.87,0,154.56-40.7,154.56-90.9 C322.55,94.08,310.51,72.48,287.19,56.29z" class="st0"/><rect width="105.62" height="5.03" x="185.44" y="116.03" class="st0"/><g><radialGradient id="SVGID_1_" cx="166.931" cy="97.163" r="26.703" gradientTransform="matrix(0.9997 0.0261 -0.0359 1.3782 3.5493 -41.1037)" gradientUnits="userSpaceOnUse"><stop offset=".001" style="stop-color:#fce1d3"/><stop offset=".524" style="stop-color:#fcdfd1"/><stop offset=".712" style="stop-color:#f9d9ca"/><stop offset=".846" style="stop-color:#f3cebe"/><stop offset=".953" style="stop-color:#ecbeac"/><stop offset="1" style="stop-color:#e7b5a2"/></radialGradient><path d="M187.84,85.21v-9.67c0,0-4.03,0-20.84,0c-14.66,0-18.37-4.81-19.08-6.05h-0.14V85.9c0,0-0.03-0.02-0.04-0.03 v9.72c0,11.98,9.05,21.78,20.12,21.78c11.07,0,20.12-9.81,20.12-21.78V85.1C187.89,85.17,187.84,85.21,187.84,85.21z" class="st1"/><g id="XMLID_7620_"><path d="M168.36,100.71c-1.75,0-3.17-1.42-3.17-3.17v-3.9c0-0.21,0.17-0.39,0.39-0.39s0.39,0.17,0.39,0.39v3.9 c0,1.32,1.07,2.39,2.39,2.39c0.21,0,0.39,0.17,0.39,0.39C168.74,100.54,168.57,100.71,168.36,100.71z" class="st2"/></g><linearGradient id="SVGID_2_" x1="187.927" x2="190.704" y1="92.293" y2="92.293" gradientUnits="userSpaceOnUse"><stop offset=".001" style="stop-color:#fce1d3"/><stop offset=".334" style="stop-color:#fbded0"/><stop offset=".593" style="stop-color:#f7d5c6"/><stop offset=".826" style="stop-color:#efc6b4"/><stop offset="1" style="stop-color:#e7b5a2"/></linearGradient><path d="M187.97,88.08v7.52c0,0.3-0.03,0.6-0.04,0.9c1.63-0.71,2.78-2.33,2.78-4.22 C190.7,90.41,189.58,88.8,187.97,88.08z" class="st3"/><linearGradient id="SVGID_3_" x1="144.067" x2="147.785" y1="92.285" y2="92.285" gradientUnits="userSpaceOnUse"><stop offset=".001" style="stop-color:#fce1d3"/><stop offset=".299" style="stop-color:#fbddcf"/><stop offset=".582" style="stop-color:#f6d3c3"/><stop offset=".86" style="stop-color:#edc1af"/><stop offset="1" style="stop-color:#e7b5a2"/></linearGradient><path d="M147.73,95.6v-7.82c-2.09,0.43-3.66,2.28-3.66,4.5c0,2.24,1.6,4.1,3.72,4.51 C147.76,96.4,147.73,96,147.73,95.6z" class="st4"/><linearGradient id="SVGID_4_" x1="168.369" x2="168.369" y1="128.39" y2="114.437" gradientUnits="userSpaceOnUse"><stop offset=".001" style="stop-color:#fce1d3"/><stop offset=".339" style="stop-color:#fbded0"/><stop offset=".595" style="stop-color:#f7d5c6"/><stop offset=".824" style="stop-color:#efc6b5"/><stop offset="1" style="stop-color:#e7b5a2"/></linearGradient><path d="M167.85,117.38c-3.23,0-6.28-0.86-8.99-2.34v5.26c0,4.46,3.62,8.08,8.08,8.08h2.85 c4.46,0,8.08-3.62,8.08-8.08v-5.87C174.92,116.3,171.5,117.38,167.85,117.38z" class="st5"/><path d="M159.05,122.06c-1.06-0.42-2.32-0.35-3.48-0.08c-1.82,0.43-2.57,2.61-1.41,4.07l11.19,12.71l0.17-10.5 C162.31,127.69,159.75,125.22,159.05,122.06z" class="st6"/><path d="M181.16,121.95c-0.02,0-0.04-0.01-0.06-0.01c-1.16-0.25-2.39-0.3-3.42,0.16c-0.7,3.11-3.19,5.53-6.34,6.14 l0.17,10.52l11.09-12.59C183.8,124.66,183.04,122.37,181.16,121.95z" class="st6"/><path d="M202.01,132.65l-19.32-9.66c0.63,0.91,0.68,2.21-0.09,3.18l-11.09,12.59l-0.17-10.52c0,0,0,0,0,0 c-0.5,0.1-1.01,0.15-1.54,0.15h-2.85c-0.49,0-0.96-0.05-1.42-0.13c0,0,0,0,0,0l-0.17,10.5l-11.19-12.71 c-1.08-1.37-0.48-3.34,1.08-3.94c0-0.03,0-0.06,0-0.09l-21.26,10.63c-2.09,1.05-4.25,2.12-4.25,6.38v44.55 c10.66,8.01,23.91,12.75,38.27,12.75c14.36,0,27.61-4.74,38.27-12.75v-44.55C206.26,134.78,204.1,133.7,202.01,132.65z" class="st7"/><g><radialGradient id="SVGID_5_" cx="157.357" cy="91.383" r="2.134" gradientUnits="userSpaceOnUse"><stop offset=".001" style="stop-color:#4e5b5f"/><stop offset=".224" style="stop-color:#4c595d"/><stop offset=".397" style="stop-color:#465459"/><stop offset=".553" style="stop-color:#3d4b51"/><stop offset=".7" style="stop-color:#303f48"/><stop offset=".839" style="stop-color:#21303b"/><stop offset=".972" style="stop-color:#0f222f"/><stop offset="1" style="stop-color:#0a1f2d"/></radialGradient><path d="M157.36,89.25C157.36,89.25,157.36,89.25,157.36,89.25c0,1.18-0.96,2.13-2.13,2.13c0,0,0,0,0,0 c0,1.18,0.96,2.13,2.13,2.13c1.18,0,2.13-0.96,2.13-2.13C159.49,90.2,158.54,89.25,157.36,89.25z" class="st8"/><radialGradient id="SVGID_6_" cx="177.767" cy="91.383" r="2.134" gradientUnits="userSpaceOnUse"><stop offset=".001" style="stop-color:#4e5b5f"/><stop offset=".224" style="stop-color:#4c595d"/><stop offset=".397" style="stop-color:#465459"/><stop offset=".553" style="stop-color:#3d4b51"/><stop offset=".7" style="stop-color:#303f48"/><stop offset=".839" style="stop-color:#21303b"/><stop offset=".972" style="stop-color:#0f222f"/><stop offset="1" style="stop-color:#0a1f2d"/></radialGradient><path d="M177.77,89.25C177.77,89.25,177.77,89.25,177.77,89.25c0,1.18-0.96,2.13-2.13,2.13c0,0,0,0,0,0 c0,1.18,0.96,2.13,2.13,2.13c1.18,0,2.13-0.96,2.13-2.13C179.9,90.2,178.95,89.25,177.77,89.25z" class="st9"/><g><path d="M156.92,79.19c1.66,0,3.18,0.68,4.28,1.91c0.15,0.17,0.35,0.27,0.58,0.28c0.23,0.01,0.44-0.06,0.6-0.21 c0.34-0.31,0.37-0.84,0.07-1.18c-1.41-1.57-3.42-2.48-5.53-2.48s-4.12,0.9-5.53,2.48c-0.31,0.34-0.28,0.87,0.07,1.18 c0.17,0.15,0.37,0.23,0.6,0.21c0.22-0.01,0.43-0.11,0.58-0.28C153.74,79.87,155.26,79.19,156.92,79.19z" class="st10"/><path d="M178.85,79.19c1.66,0,3.18,0.68,4.28,1.91c0.15,0.17,0.35,0.27,0.58,0.28c0.22,0.02,0.44-0.06,0.6-0.21 c0.17-0.15,0.26-0.35,0.28-0.58c0.01-0.22-0.06-0.44-0.21-0.6h0c-1.41-1.57-3.42-2.48-5.53-2.48s-4.12,0.9-5.53,2.48 c-0.15,0.17-0.22,0.38-0.21,0.6c0.01,0.22,0.11,0.43,0.28,0.58c0.17,0.15,0.38,0.23,0.6,0.21c0.22-0.01,0.43-0.11,0.58-0.28 C175.67,79.87,177.19,79.19,178.85,79.19z" class="st10"/></g></g><radialGradient id="SVGID_7_" cx="167.286" cy="68.346" r="22.094" gradientUnits="userSpaceOnUse"><stop offset=".001" style="stop-color:#4e5b5f"/><stop offset=".224" style="stop-color:#4c595d"/><stop offset=".397" style="stop-color:#465459"/><stop offset=".553" style="stop-color:#3d4b51"/><stop offset=".7" style="stop-color:#303f48"/><stop offset=".839" style="stop-color:#21303b"/><stop offset=".972" style="stop-color:#0f222f"/><stop offset="1" style="stop-color:#0a1f2d"/></radialGradient><path d="M186.68,57.32c2.02-1.68,1.73-3.89,1.73-3.89c-3.28,3.28-11.74-2.65-24.41-2.65 c-12.66,0-13.24,6.22-13.24,6.22s-9.33-1.15-9.33,11.97s6.33,16.92,6.33,16.92V69.21c0,0,2.42,6.33,19.23,6.33s20.84,0,20.84,0 v9.67c0,0,5.3-3.8,5.3-16.35C193.13,63.08,190.03,59.51,186.68,57.32z" class="st11"/><g><g><path d="M180.38,82.25c-7.6,0-16.81,0-24.8,0c-7.91,0-10.69,0.69-10.69,0.69l0,2.6c2.36,0.93,1.68,4.65,3.9,7.98 c2.22,3.33,8.88,4.19,12.42,2.51c3.54-1.68,4.69-6.41,5.05-7.2c0.36-0.79,1.72-0.82,1.72-0.82s1.36,0.04,1.72,0.82 c0.36,0.79,1.5,5.51,5.05,7.2c3.54,1.68,10.2,0.82,12.42-2.51c2.22-3.33,1.54-7.05,3.9-7.98l0-2.6 C191.07,82.94,188.29,82.25,180.38,82.25z M160.82,94.96c-2.53,1.18-8.66,0.93-10.81-1.83c-2.15-2.76-2.3-6.7-1.36-8.02 c1.72-2.4,13.17-1.56,15.61,1.25C165.94,88.3,164.03,93.46,160.82,94.96z M187.31,85.11c0.94,1.32,0.79,5.26-1.36,8.02 c-2.15,2.76-8.28,3-10.81,1.83c-3.21-1.5-5.12-6.66-3.44-8.59C174.15,83.56,185.59,82.71,187.31,85.11z" class="st12"/></g></g></g><g><polygon points="31.5 184.53 31.5 218.12 39.65 218.12 39.65 198.28 296.33 198.28 296.33 218.12 304.48 218.12 304.48 184.53" class="st10"/><rect width="272.98" height="1.93" x="31.5" y="182.6" class="st2"/></g><g><g><path d="M286.34,125.99h-78.52c-2.92,0-5.29,2.37-5.29,5.3v51.33h89.11v-51.33 C291.63,128.36,289.26,125.99,286.34,125.99z" class="st2"/><path d="M286.34,129.61h-78.52c-0.92,0-1.67,0.75-1.67,1.67v47.71h81.86v-47.71 C288.01,130.36,287.26,129.61,286.34,129.61z" class="st13"/><rect width="89.11" height="2.08" x="202.52" y="180.54" class="st10"/></g></g><g><g><rect width="7.94" height="57.83" x="48" y="124.8" class="st12"/></g><g><rect width="7.94" height="57.83" x="65.01" y="124.8" class="st14"/></g><g><rect width="9.21" height="70.93" x="55.86" y="111.7" class="st10"/></g><g><polygon points="98.96 182.62 88.79 182.62 69.46 111.07 78.86 111.08" class="st13"/></g><g><rect width="11.91" height="70.87" x="36.37" y="111.76" class="st15"/></g></g><g id="mug_1_"><g id="mug"><g><path d="M268.1,160.99v-6.71h-0.2h-1.72h-22.01v28.39h23.93v-6.71c3.92,0,7.93-0.89,7.93-7.48 S272.03,160.99,268.1,160.99z M268.1,174.13v-11.32c3.87,0,6.12,0.93,6.12,5.66C274.22,173.2,271.98,174.13,268.1,174.13z" class="st15"/></g><path d="M269.83,153.53c0,0.75-0.61,1.36-1.36,1.36h-24.65c-0.75,0-1.36-0.61-1.36-1.36l0,0 c0-0.75,0.61-1.36,1.36-1.36h24.65C269.23,152.18,269.83,152.79,269.83,153.53L269.83,153.53z" class="st14"/></g></g><g id="mouse_2_"><g id="mouse"><path d="M214.48,182.48c0-3.97,4.47-7.18,9.98-7.18c5.51,0,9.98,3.22,9.98,7.18H214.48z" class="st16"/></g></g><g id="computer_1_"><g id="computer"><g><g><rect width="46" height="2" x="143.69" y="180.59" class="st10"/></g><path d="M212.35,102.7h-91.64c-1.94,0-3.52,1.8-3.52,4v52v8c0,2.2,1.59,4,3.52,4h91.64c1.94,0,3.53-1.8,3.53-4v-8 v-52C215.88,104.5,214.29,102.7,212.35,102.7z" class="st17"/><g><rect width="22.66" height="16.28" x="155.2" y="164.36" class="st13"/></g></g><ellipse cx="166.72" cy="134.08" class="st16" rx="7.61" ry="7.61" transform="matrix(0.2647 -0.9643 0.9643 0.2647 -6.7041 259.3659)"/></g></g><g><polygon points="38.91 72.71 28.69 72.71 28.69 80.47 40.91 80.47 51.13 80.47 51.13 72.71 40.91 72.71" class="st18"/></g><path d="M38.91,70.7h-7.26c-0.58,0.66-1.15,1.33-1.71,2h8.97h2h10.22v7.76H40.91H28.69v-6.21 c-0.69,0.88-1.36,1.77-2,2.67v3.54h-2.4c-0.42,0.66-0.83,1.33-1.23,2h3.63h2h10.22v7.76H28.69h-2H19.1 c-0.29,0.66-0.56,1.33-0.83,2h8.41v7.76H15.72c-0.18,0.66-0.34,1.33-0.5,2h11.47h2h16.26c0.55,0,1-0.45,1-1s-0.45-1-1-1H28.69 v-7.76h12.22h11.22c0.55,0,1-0.45,1-1c0-0.55-0.45-1-1-1H40.91v-7.76h11.22h1h4.48c0.55,0,1-0.45,1-1s-0.45-1-1-1h-4.48v-7.76 h11.22c0.55,0,1-0.45,1-1c0-0.55-0.45-1-1-1H53.13H40.91v-7.76h16.26c0.55,0,1-0.45,1-1c0-0.55-0.45-1-1-1H41.82 c-0.99,0.82-1.97,1.64-2.91,2.48V70.7z" class="st0"/><g><path d="M118,71.48h10.22v7.76h-22.44v-7.76H116H118z M116,61.72v7.76h-10.22h-2H93.56v-7.76h10.22H116z" class="st0"/></g><path d="M290.2,73.87h-9.07c-0.08,0-0.14,0.06-0.14,0.14v40.51c0,0.08,0.06,0.14,0.14,0.14h9.07 c0.08,0,0.14-0.06,0.14-0.14V74.01C290.34,73.93,290.28,73.87,290.2,73.87z M281.55,78.66h8.01v0.56h-8.01V78.66z M287.48,82.3 v23.68h-3.38V82.3H287.48z M289.64,109.81h-8.01v-0.56h8.01V109.81z" class="st0"/><path d="M278.69,73.87h-8.87c-0.13,0-0.24,0.11-0.24,0.24v40.32c0,0.13,0.11,0.24,0.24,0.24h8.87 c0.13,0,0.24-0.11,0.24-0.24V74.11C278.92,73.98,278.82,73.87,278.69,73.87z M270.13,78.66h8.01v0.56h-8.01V78.66z M276.07,82.3 v23.68h-3.39V82.3H276.07z M278.22,109.81h-8.01v-0.56h8.01V109.81z" class="st0"/><path d="M244.44,73.81h-14.36c-0.23,0-0.42,0.19-0.42,0.42v39.78c0,0.23,0.19,0.42,0.42,0.42h14.36 c0.23,0,0.42-0.19,0.42-0.42V74.24C244.87,74,244.68,73.81,244.44,73.81z M242.75,88.63h-10.96V78.35h10.96V88.63z" class="st0"/><g class="st19"><path d="M266.28,73.73h-15.02c-0.56,0-1.01,0.45-1.01,1.01v38.85c0,0.56,0.45,1.01,1.01,1.01h15.02 c0.56,0,1.01-0.45,1.01-1.01V74.74C267.29,74.18,266.83,73.73,266.28,73.73z M266.28,113.6l-15.03-0.01l0.01-38.86h15.02 l0.01,0.01L266.28,113.6z" class="st20"/><path d="M258.76,105.61c-1.53,0-2.77,1.24-2.77,2.77c0,1.53,1.24,2.77,2.77,2.77c1.53,0,2.77-1.24,2.77-2.77 C261.54,106.85,260.29,105.61,258.76,105.61z M258.76,110.15c-0.98,0-1.77-0.79-1.77-1.77c0-0.98,0.79-1.77,1.77-1.77 s1.77,0.8,1.77,1.77C260.54,109.36,259.74,110.15,258.76,110.15z" class="st20"/><path d="M252.5,104.17h12.25V77.01H252.5V104.17z M253.5,78.01h10.25v25.15H253.5V78.01z" class="st20"/></g><path d="M106.68,116.29h21.17c0-5.34-3.96-9.75-9.11-10.47c-0.3-13.13-7.94-19.15-15.05-19.15 c-7.27,0-15.08,6.24-15.08,19.94v71.5h-7.12l-0.02,4.51H98.7v-4.51h-7.1v-71.5c0-11.64,6.26-16.94,12.08-16.94 c3.1,0,6.01,1.44,8.18,4.07c2.42,2.92,3.75,7.1,3.87,12.09C110.62,106.57,106.68,110.97,106.68,116.29z" class="st10"/><linearGradient id="SVGID_8_" x1="117.261" x2="117.261" y1="182.646" y2="116.292" gradientUnits="userSpaceOnUse"><stop offset="0" style="stop-color:#fff;stop-opacity:0"/><stop offset="1" style="stop-color:#fff"/></linearGradient><polygon points="143.97 182.65 127.84 116.29 117.67 116.29 117.67 116.29 117.26 116.29 116.85 116.29 116.85 116.29 106.68 116.29 90.55 182.65 115.04 182.62" class="st21"/><path d="M235.5,44.53h-1h-4.48c-0.55,0-1,0.45-1,1s0.45,1,1,1h4.48v7.76h-11.22c-0.55,0-1,0.45-1,1s0.45,1,1,1h11.22 h12.22v7.76h-16.26c-0.55,0-1,0.45-1,1s0.45,1,1,1h16.26h2h22.44h2h16.26c0.55,0,1-0.45,1-1s-0.45-1-1-1h-16.26v-7.76h12.22h1.81 c-1.24-0.86-2.51-1.71-3.81-2.54v0.53h-10.22h-2h-10.22v-7.76h9.44c-1.41-0.68-2.85-1.35-4.31-2h-5.13h-2h-10.22v-6.57 c-0.66-0.21-1.33-0.41-2-0.62v7.18H235.5z M260.94,56.29h10.22v7.76h-22.44v-7.76h10.22H260.94z M258.94,46.53v7.76h-10.22h-2 H236.5v-7.76h10.22H258.94z" class="st0"/><g><path d="M286.6,149.07C286.6,149.07,286.6,149.07,286.6,149.07L286.6,149.07z" class="st22"/></g><g><g><path d="M290.68,163.02c-0.02-0.14-0.42-3.31,1.39-5.38c0.98-1.12,2.41-1.69,4.24-1.69v0.85 c-1.57,0-2.78,0.47-3.59,1.39c-1.56,1.77-1.2,4.68-1.19,4.71L290.68,163.02z" class="st10"/></g><g><path d="M302.83,170.68c0,6.61-5.36,11.96-11.96,11.96c-6.61,0-11.96-5.36-11.96-11.96c0-4.53,2.24-9.61,6.24-9.6 c2.92,0.01,3.65,1.64,5.72,1.64c2.02,0,3.52-1.82,5.55-1.64C300.42,161.45,302.83,166.09,302.83,170.68z" class="st12"/></g></g><rect width="19.98" height="17.06" x="205.12" y="119.66" class="st23"/><rect width="19.98" height="17.06" x="198.81" y="107.7" class="st24"/><g><line x1="260.25" x2="260.33" y1="208.93" y2="208.93" class="st20"/><path d="M246.32,202.42c-1.82,0-3.25,1.51-3.25,3.41v6.27c0,1.9,1.43,3.33,3.25,3.33h1.51h3.09h4.31v-13.01H246.32z M249.79,212.58c-2.01,0-3.65-1.63-3.65-3.65c0-2.01,1.63-3.65,3.65-3.65c2.01,0,3.65,1.63,3.65,3.65 C253.44,210.94,251.8,212.58,249.79,212.58z" class="st25"/><g><path d="M259.69,208.37c-0.14,0.14-0.24,0.35-0.24,0.55c0,0.21,0.08,0.41,0.24,0.56c0.15,0.15,0.35,0.23,0.56,0.23 c0.21,0,0.41-0.08,0.56-0.23c0.15-0.15,0.23-0.35,0.23-0.56c0-0.2-0.09-0.41-0.23-0.55 C260.52,208.07,259.98,208.07,259.69,208.37z" class="st25"/><path d="M262.39,208.37c-0.14,0.14-0.24,0.35-0.24,0.55c0,0.21,0.08,0.41,0.24,0.56c0.15,0.15,0.35,0.23,0.56,0.23 c0.21,0,0.41-0.08,0.56-0.23c0.15-0.15,0.23-0.35,0.23-0.56c0-0.2-0.09-0.41-0.23-0.55 C263.22,208.07,262.68,208.07,262.39,208.37z" class="st25"/><path d="M265.04,202.42h-9.12v13.01h9.12c1.82,0,3.25-1.51,3.25-3.33v-6.27 C268.29,203.93,266.78,202.42,265.04,202.42z M261.58,212.58c-2.01,0-3.65-1.63-3.65-3.65c0-2.01,1.63-3.65,3.65-3.65 s3.65,1.63,3.65,3.65C265.22,210.94,263.59,212.58,261.58,212.58z" class="st25"/></g></g><g><path d="M246.14,209.8h-75.75c-1.63,0-2.89-0.48-3.75-1.44c-1.39-1.53-1.19-3.7-1.18-3.79l0-6.3h1v6.35 c0,0.07-0.16,1.88,0.93,3.08c0.66,0.73,1.68,1.1,3.01,1.1h75.75V209.8z" class="st13"/></g><rect width="13.72" height=".55" x="202.18" y="110.44" class="st16"/><rect width="13.72" height=".55" x="202.18" y="112.27" class="st16"/><rect width="13.72" height=".55" x="202.18" y="114.09" class="st16"/><rect width="13.72" height=".55" x="202.18" y="115.92" class="st16"/><rect width="13.72" height=".55" x="202.18" y="119.18" class="st16"/></g></switch></svg>